<?xml version="1.0" encoding="UTF-8"?>
<svg id="a" data-name="Layer 1" xmlns="http://www.w3.org/2000/svg" viewBox="0 0 487.55 576.51">
  <defs>
    <style>
      .b {
        stroke-width: 4px;
      }

      .b, .c {
        fill: none;
        stroke: #fff;
        stroke-miterlimit: 10;
      }

      .c {
        stroke-width: 3px;
      }

      .d {
        fill: #fff;
      }
    </style>
  </defs>
  <path class="d" d="M450,220.55c-26.3-.6-57.5,23.9-75.8,47-18.3,23.1-32.8,48.9-58.2,65.8-18.2-10-12.2-33.6-6.8-49.8,12.9-38.7,30.3-57.5,52.9-89.1,10.4-14.5,18.7-30.4,29.2-44.8,20.9-28.9,49.2-55.1,69.2-83.8,11.3-16,19.6-34.6,13.7-54.3-3.9-12.9-13.9-14.1-25-8-22.6,19.6-43.2,45.2-67.2,62.8-5.8,4.3-12.4,7.6-18.2,11.8-25.7,18.5-44.4,45.1-67.6,66.5l-2.2,1.56c-1.86,1.81-3.83,3.5-5.86,5.14-.11.32-.26.63-.46.92-.91,1.31-1.93,2.51-3.05,3.64-.45.45-.91.9-1.35,1.37-.21.22-.4.46-.6.68-.02.04-.05.07-.08.11-.93,1.34-2.23,2.18-3.72,2.38-2.01,2.19-4.14,4.27-6.48,6.2-6.7,5.5-14.6,9.7-21.2,14.8-1.3.9-2.7,1.1-2.3,3.2,1.5,1.3,7.9-3,9.5-4,28.6-17.6,58.6-53.4,82-78,16.8-17.7,35.6-26.3,53.5-41.5,12.8-10.8,26.2-24.7,38.5-36.5,7.4-7.1,22.2-29.2,34-18,7,6.7-.8,16.9-6.6,21.4-1.4,1.1-8.5,5.4-9.4,5.3-.9-.1-2.1-2.5-4-2.8-1.9-.3-.9,2-2.9,2.2s-6-.4-7.9-2c-1.9-1.6,1.3-6-2.6-5.1l.6,7.1c2.6.7,5.3,2.6,8,2.9,1.8.2,1.6-.9,4.8-.7,3.2.2-.7,3.4,7.6.2,8.3-3.2,13.2-9.6,16.9-17.1.5-1.1-.5-1.8,2.1-1.4v16.5c0,20.6-55.3,77.8-72,99-16.7,21.2-28.6,43.6-44.2,64.8-9.7,13.2-19,22.8-27.6,37.4-12.5,21.4-39.7,73.3-21.6,95.2,1.8,2.3,4.6,3,5.4,5.6-.4,1.7-27.6,16.4-32,16.5-.9,3.1-4.7,4.4,5.2,1.7,9.9-2.7,17.8-4.1,46.2-28.8,28.4-24.7,41.3-61.9,73.2-82.8,13.6-8.8,35.4-20.8,51.9-16.2,7.4,2,24.1,8.7,27,21,2.9,12.3-19.7,31.5-28.1,39l-2.5,1-.2.1c.3-3.6-3.3-.5-1-5-2.6-1.1-1.6,1.8-2.6,2-7.9,1.4-11.7-1.2-12.4-19.6-.7-18.4,16.6-26.3,32-28.9,1.5-.9,6.4-.6-.6-2.5-7-1.9-19.9,1.3-28.8,14-8.9,12.7-6.7,41.4,13.4,39.9-7.3,8.9-16.8,15.7-22.8,25.7-13,21.8-22.8,29.7-43.2,54.8-20.4,25.1-37.3,55.4-63.1,74.9-21.8,16.5-57.7,41.8-74.6,51.4s-33,11.5-50.3,18.7c-25.2,10.5-52.8,34.7-71,55-1.1,1.1-7,7.5-7,8s2.1,2.3,3,1c21-22.7,43.9-47.8,73-60,16.7-7,34.3-9.5,50.6-18.4,33.4-18.1,68.4-48.1,98.3-71.7,21.8-36,55.7-66.1,80-99,4.9-6.5,7-13.3,12.1-19.9,11.9-15.3,46.3-40.2,48.7-55.3,2.4-15.1-24.6-30.9-37.4-31.2Z"/>
  <path class="d" d="M112.26,173.23c-21.54,53.84-27.7,70.45-39.76,104.62-17.69,50.1-27.3,99.2-56.7,144.3-2.1,3.2-15.8,19.4-15.8,22.2s2.6.3,3.4-.6c36.3-40.3,46.2-91.6,63.3-140.7,14.5-41.8,31.1-82.5,47.7-123.3.48-1.18.96-2.37,1.43-3.55-1.48-.45-2.86-1.49-3.57-2.97Z"/>
  <path class="c" d="M184.78,205.56c5-10.12,15.41-34.91,21.04-44.71,2.84-4.94,5.94-10.03,10.84-13.01,5.41-3.3,12.18-3.5,18.52-2.9,16.81,1.59,32.69,8.04,48.27,14.42"/>
  <path class="c" d="M147.81,181.51c5.28-6.65,10.56-13.3,15.84-19.95,1.56-1.97,3.19-3.99,6.08-5.48,9.95-5.15,26.79-1.2,40.42-2.77"/>
  <path class="b" d="M111.09,181.51c5.37-9.75,10.38-18.65,20.03-20.97s22.07-.62,31.92,1.03"/>
  <path class="c" d="M350.97,211.1c5.51,10.26,6.2,22.5,4.68,34.04-10.64,54.46-.47,48.82-51.03,79.76"/>
  <path class="d" d="M310.56,275.86c9.95.85,21.14,7.97,22.6,18.49,0,0-.19.07-.19.07-3.94-6.36-8.42-12.59-15.31-15.91-2.23-1.14-4.64-1.96-7.13-2.45l.03-.2h0Z"/>
  <path class="d" d="M321.56,245.1c8.34-4.43,18.1-7.3,27.6-5.98,0,0,0,.1,0,.1-4.74.36-9.41.75-14.08,1.57-4.63.78-9.32,2.61-13.51,4.3h0Z"/>
</svg>